<svg width="200" height="65" viewBox="0 0 200 65" fill="none" xmlns="http://www.w3.org/2000/svg">
<g id="appstore">
<g id="Group">
<path id="Vector" d="M199.41 56.238V56.738H199.485C199.224 61.0563 195.602 64.5 191.191 64.5H8.80899C4.22868 64.5 0.5 60.7874 0.5 56.238V8.76204C0.5 4.21263 4.22868 0.5 8.80899 0.5H191.101C195.681 0.5 199.41 4.21263 199.41 8.76204V56.238Z" fill="black" stroke="white" stroke-miterlimit="10"/>
<path id="Vector_2" d="M35.333 11.0867H19.15C17.183 11.0867 15.6631 12.696 15.6631 14.5736V50.5158C15.6631 52.4828 17.2724 54.0028 19.15 54.0028H35.333C37.3 54.0028 38.8199 52.3934 38.8199 50.5158V14.663C38.9093 12.696 37.3 11.0867 35.333 11.0867ZM27.2862 51.4993C26.0345 51.4993 24.9616 50.4264 24.9616 49.1747C24.9616 47.923 26.0345 46.8501 27.2862 46.8501C28.5379 46.8501 29.6108 47.923 29.6108 49.1747C29.6108 50.4264 28.5379 51.4993 27.2862 51.4993ZM36.1376 45.6878H18.4348V19.1334H36.1376V45.6878Z" fill="white"/>
<g id="Group_2">
<path id="Vector_3" d="M52.1417 17.5236L51.1582 20.4741H49.9065L53.1252 10.9968H54.6451L57.8639 20.4741H56.5227L55.5392 17.5236H52.1417ZM55.271 16.5402L54.2875 13.8579C54.1087 13.232 53.9299 12.6956 53.8405 12.1591C53.7511 12.6956 53.5722 13.3214 53.3934 13.8579L52.4099 16.5402H55.271Z" fill="white"/>
<path id="Vector_4" d="M59.1155 13.6792L60.4567 17.5238C60.7249 18.1496 60.9037 18.6861 60.9931 19.3119C61.1719 18.7755 61.3508 18.1496 61.5296 17.5238L62.8707 13.6792H64.1224L61.4402 20.4742H60.2779L57.7744 13.6792H59.1155Z" fill="white"/>
<path id="Vector_5" d="M69.934 18.8651C69.934 19.4909 69.934 20.0274 70.0234 20.4744H68.9505L68.8611 19.5803C68.5035 20.1168 67.7882 20.5638 66.8047 20.5638C65.4636 20.5638 64.7483 19.5803 64.7483 18.5968C64.7483 16.9875 66.1788 16.0934 68.8611 16.0934V15.9146C68.8611 15.3781 68.6823 14.3052 67.3411 14.3052C66.7153 14.3052 66 14.484 65.553 14.8417L65.2847 14.037C65.8212 13.6794 66.7153 13.4111 67.52 13.4111C69.5764 13.4111 70.1128 14.8417 70.1128 16.1828V18.8651H69.934ZM68.6823 17.0769C67.3411 17.0769 65.8212 17.2557 65.8212 18.5968C65.8212 19.4015 66.3576 19.7591 66.9835 19.7591C67.8776 19.7591 68.5034 19.2227 68.6823 18.5968C68.6823 18.5074 68.7717 18.3286 68.7717 18.2392V17.0769H68.6823Z" fill="white"/>
<path id="Vector_6" d="M72.4375 12.4272C71.9904 12.4272 71.6328 12.0696 71.6328 11.6225C71.6328 11.1755 71.9904 10.8179 72.4375 10.8179C72.8845 10.8179 73.2422 11.1755 73.2422 11.6225C73.2422 12.0696 72.9739 12.4272 72.4375 12.4272ZM71.8116 20.474V13.6789H73.0633V20.474H71.8116Z" fill="white"/>
<path id="Vector_7" d="M75.0303 10.5498H76.282V20.5636H75.0303V10.5498Z" fill="white"/>
<path id="Vector_8" d="M83.0771 18.8651C83.0771 19.4909 83.0771 20.0274 83.1665 20.4744H82.0936L82.0041 19.5803C81.6465 20.1168 80.9313 20.5638 79.9478 20.5638C78.6066 20.5638 77.8914 19.5803 77.8914 18.5968C77.8914 16.9875 79.3219 16.0934 82.0041 16.0934V15.9146C82.0041 15.3781 81.8253 14.3052 80.4842 14.3052C79.8583 14.3052 79.1431 14.484 78.696 14.8417L78.4278 14.037C78.9643 13.6794 79.8583 13.4111 80.663 13.4111C82.7194 13.4111 83.2559 14.8417 83.2559 16.1828V18.8651H83.0771ZM81.8253 17.0769C80.4842 17.0769 78.9643 17.2557 78.9643 18.5968C78.9643 19.4015 79.5007 19.7591 80.1266 19.7591C81.0207 19.7591 81.6465 19.2227 81.8253 18.5968C81.8253 18.5074 81.9147 18.3286 81.9147 18.2392V17.0769H81.8253Z" fill="white"/>
<path id="Vector_9" d="M84.9546 10.5498H86.2063V14.752C86.6534 14.0367 87.458 13.5003 88.5309 13.5003C90.2297 13.5003 91.392 14.9308 91.392 16.9872C91.392 19.4012 89.8721 20.653 88.3521 20.653C87.3686 20.653 86.5639 20.2953 86.1169 19.4012L86.0275 20.5636H84.9546C84.9546 20.1165 85.044 19.4012 85.044 18.7754V10.5498H84.9546ZM86.2063 17.7919C86.2063 17.9707 86.2063 18.0601 86.2063 18.2389C86.4745 19.133 87.1898 19.6695 88.0839 19.6695C89.425 19.6695 90.1403 18.5966 90.1403 17.0766C90.1403 15.7355 89.425 14.5732 88.0839 14.5732C87.2792 14.5732 86.4745 15.199 86.2063 16.0931C86.2063 16.272 86.1169 16.4508 86.1169 16.6296V17.7919H86.2063Z" fill="white"/>
<path id="Vector_10" d="M92.9121 10.5498H94.1638V20.5636H92.9121V10.5498Z" fill="white"/>
<path id="Vector_11" d="M96.8458 17.3445C96.8458 19.0433 97.9188 19.6691 99.1705 19.6691C100.065 19.6691 100.601 19.4903 101.048 19.3115L101.316 20.2056C100.869 20.3844 100.154 20.6526 99.0811 20.6526C97.0247 20.6526 95.7729 19.2221 95.7729 17.2551C95.7729 15.1987 97.0247 13.5894 98.9917 13.5894C101.227 13.5894 101.763 15.5563 101.763 16.8081C101.763 17.0763 101.763 17.2551 101.763 17.4339L96.8458 17.3445ZM100.512 16.4504C100.512 15.6458 100.154 14.394 98.8128 14.394C97.5611 14.394 97.0247 15.5563 96.9353 16.4504H100.512Z" fill="white"/>
<path id="Vector_12" d="M108.827 20.6526C107.038 20.6526 105.519 19.3115 105.519 17.1657C105.519 14.9305 107.038 13.5894 108.916 13.5894C110.883 13.5894 112.224 15.0199 112.224 17.0763C112.224 19.5797 110.436 20.6526 108.827 20.6526ZM108.827 19.7585C109.989 19.7585 110.883 18.6856 110.883 17.0763C110.883 15.914 110.347 14.4834 108.827 14.4834C107.396 14.4834 106.77 15.8246 106.77 17.1657C106.77 18.5962 107.664 19.7585 108.827 19.7585Z" fill="white"/>
<path id="Vector_13" d="M113.655 15.5564C113.655 14.8411 113.655 14.3047 113.565 13.6788H114.638L114.728 14.7517C115.085 14.1259 115.89 13.5 116.963 13.5C117.946 13.5 119.377 14.0365 119.377 16.3611V20.3845H118.125V16.5399C118.125 15.467 117.678 14.4835 116.516 14.4835C115.711 14.4835 115.085 15.0199 114.817 15.7352C114.728 15.914 114.728 16.0928 114.728 16.2717V20.3845H113.476V15.5564H113.655Z" fill="white"/>
<path id="Vector_14" d="M125.814 12.0701V13.6794H127.602V14.6629H125.814V18.3287C125.814 19.1333 126.083 19.6698 126.708 19.6698C127.066 19.6698 127.245 19.6698 127.424 19.5804L127.513 20.5639C127.245 20.6533 126.887 20.7427 126.44 20.7427C125.904 20.7427 125.367 20.5639 125.099 20.2062C124.741 19.8486 124.652 19.2228 124.652 18.4181V14.6629H123.579V13.6794H124.652V12.4277L125.814 12.0701Z" fill="white"/>
<path id="Vector_15" d="M128.944 10.5498H130.195V14.752C130.374 14.3944 130.732 14.0367 131.089 13.8579C131.447 13.5897 131.894 13.5003 132.341 13.5003C133.235 13.5003 134.755 14.0367 134.755 16.4508V20.4742H133.503V16.5402C133.503 15.4673 133.056 14.4838 131.894 14.4838C131.089 14.4838 130.464 15.0202 130.195 15.7355C130.106 15.9143 130.106 16.0931 130.106 16.3614V20.4742H128.854V10.5498H128.944Z" fill="white"/>
<path id="Vector_16" d="M137.348 17.3445C137.348 19.0433 138.421 19.6691 139.673 19.6691C140.567 19.6691 141.103 19.4903 141.55 19.3115L141.819 20.2056C141.371 20.3844 140.656 20.6526 139.494 20.6526C137.438 20.6526 136.186 19.2221 136.186 17.2551C136.186 15.1987 137.438 13.5894 139.405 13.5894C141.64 13.5894 142.176 15.5563 142.176 16.8081C142.176 17.0763 142.176 17.2551 142.176 17.4339L137.348 17.3445ZM141.014 16.4504C141.014 15.6458 140.656 14.394 139.315 14.394C138.063 14.394 137.527 15.5563 137.438 16.4504H141.014Z" fill="white"/>
<path id="Vector_17" d="M147.183 12.4272C146.736 12.4272 146.378 12.0696 146.378 11.6225C146.378 11.1755 146.736 10.8179 147.183 10.8179C147.63 10.8179 147.988 11.1755 147.988 11.6225C147.988 12.0696 147.63 12.4272 147.183 12.4272ZM146.557 20.474V13.6789H147.809V20.474H146.557Z" fill="white"/>
<path id="Vector_18" d="M149.865 11.1756C150.491 11.0862 151.206 10.9968 152.19 10.9968C153.442 10.9968 154.246 11.2651 154.872 11.8015C155.409 12.2485 155.677 12.9638 155.677 13.7685C155.677 14.6626 155.409 15.2884 154.962 15.8249C154.336 16.5402 153.263 16.8978 152.1 16.8978C151.743 16.8978 151.385 16.8978 151.117 16.8084V20.5635H149.865V11.1756ZM151.028 15.7355C151.296 15.8249 151.653 15.8249 152.011 15.8249C153.531 15.8249 154.425 15.1096 154.425 13.7685C154.425 12.5168 153.531 11.8909 152.19 11.8909C151.653 11.8909 151.206 11.9803 151.028 11.9803V15.7355Z" fill="white"/>
<path id="Vector_19" d="M157.107 10.5498H158.359V14.752C158.538 14.3944 158.895 14.0367 159.253 13.8579C159.611 13.5897 160.058 13.5003 160.505 13.5003C161.399 13.5003 162.919 14.0367 162.919 16.4508V20.4742H161.667V16.5402C161.667 15.4673 161.22 14.4838 160.058 14.4838C159.253 14.4838 158.627 15.0202 158.359 15.7355C158.27 15.9143 158.27 16.0931 158.27 16.3614V20.4742H157.018V10.5498H157.107Z" fill="white"/>
<path id="Vector_20" d="M167.657 20.6526C165.869 20.6526 164.349 19.3115 164.349 17.1657C164.349 14.9305 165.869 13.5894 167.747 13.5894C169.714 13.5894 171.055 15.0199 171.055 17.0763C171.055 19.5797 169.267 20.6526 167.657 20.6526ZM167.657 19.7585C168.82 19.7585 169.714 18.6856 169.714 17.0763C169.714 15.914 169.177 14.4834 167.657 14.4834C166.227 14.4834 165.601 15.8246 165.601 17.1657C165.601 18.5962 166.495 19.7585 167.657 19.7585Z" fill="white"/>
<path id="Vector_21" d="M172.485 15.5564C172.485 14.8411 172.485 14.3047 172.396 13.6788H173.469L173.558 14.7517C173.916 14.1259 174.721 13.5 175.794 13.5C176.777 13.5 178.208 14.0365 178.208 16.3611V20.3845H176.956V16.5399C176.956 15.467 176.509 14.4835 175.347 14.4835C174.542 14.4835 173.916 15.0199 173.648 15.7352C173.558 15.914 173.558 16.0928 173.558 16.2717V20.3845H172.307V15.5564H172.485Z" fill="white"/>
<path id="Vector_22" d="M180.979 17.3445C180.979 19.0433 182.052 19.6691 183.304 19.6691C184.198 19.6691 184.735 19.4903 185.182 19.3115L185.45 20.2056C185.003 20.3844 184.288 20.6526 183.215 20.6526C181.158 20.6526 179.906 19.2221 179.906 17.2551C179.906 15.1987 181.158 13.5894 183.125 13.5894C185.36 13.5894 185.897 15.5563 185.897 16.8081C185.897 17.0763 185.897 17.2551 185.897 17.4339L180.979 17.3445ZM184.556 16.4504C184.556 15.6458 184.198 14.394 182.857 14.394C181.605 14.394 181.069 15.5563 180.979 16.4504H184.556Z" fill="white"/>
</g>
<g id="Group_3">
<path id="Vector_23" d="M57.9532 26.9116L49.6382 51.499H53.4828L55.9862 43.9887H64.033L66.6258 51.499H70.5598L62.1554 26.9116H57.9532ZM59.9202 30.935C60.1884 32.0079 60.546 33.1702 60.9037 34.4219L63.1389 40.9488H56.7015L58.9367 34.4219C59.3837 33.349 59.6519 32.1867 59.9202 30.935Z" fill="white"/>
<path id="Vector_24" d="M81.2888 33.2598C78.7854 33.2598 76.729 34.2433 75.3879 36.1208L75.209 33.7068H71.8115V33.975C71.9009 35.495 71.9903 37.1937 71.9903 39.6078V58.5624H75.7455V49.7109C76.9078 51.0521 78.696 51.8567 80.8418 51.8567C82.9876 51.8567 85.044 50.9627 86.4745 49.4427C88.0839 47.7439 88.978 45.2405 88.978 42.29C88.978 39.6972 88.2627 37.462 86.8322 35.7632C85.4016 34.1539 83.4346 33.2598 81.2888 33.2598ZM80.3947 36.3891C83.7029 36.3891 85.2228 39.429 85.2228 42.4688C85.2228 46.4028 83.3452 48.8168 80.3053 48.8168C78.2489 48.8168 76.4608 47.3863 75.9243 45.3299C75.8349 44.9723 75.8349 44.6147 75.8349 44.1676V41.2171C75.8349 40.9489 75.9243 40.5913 75.9243 40.323C75.9243 40.2336 75.9243 40.1442 76.0137 40.0548C76.4608 37.8196 78.3383 36.3891 80.3947 36.3891Z" fill="white"/>
<path id="Vector_25" d="M100.422 33.2598C97.9187 33.2598 95.8623 34.2433 94.5212 36.1208L94.3424 33.7068H90.9448V33.975C91.0342 35.495 91.1236 37.1937 91.1236 39.6078V58.5624H94.8788V49.7109C96.0411 51.0521 97.8293 51.8567 99.9751 51.8567C102.121 51.8567 104.177 50.9627 105.608 49.4427C107.217 47.7439 108.111 45.2405 108.111 42.29C108.111 39.6972 107.396 37.462 105.965 35.7632C104.535 34.1539 102.568 33.2598 100.422 33.2598ZM99.528 36.3891C102.836 36.3891 104.356 39.429 104.356 42.4688C104.356 46.4028 102.479 48.8168 99.4386 48.8168C97.3822 48.8168 95.5941 47.3863 95.0576 45.3299C94.9682 44.9723 94.9682 44.6147 94.9682 44.1676V41.2171C94.9682 40.9489 95.0576 40.5913 95.0576 40.323C95.0576 40.2336 95.0576 40.1442 95.147 40.0548C95.5941 37.8196 97.4716 36.3891 99.528 36.3891Z" fill="white"/>
<path id="Vector_26" d="M124.384 37.3724C120.897 36.0313 119.824 34.9584 119.824 32.9914C119.824 31.3821 121.165 29.6833 124.026 29.6833C126.44 29.6833 127.96 30.488 128.407 30.7562L128.765 30.935L129.838 27.8057L129.659 27.7163C129.033 27.3587 127.245 26.4646 124.205 26.4646C119.466 26.4646 116.158 29.2363 116.158 33.2596C116.158 36.4784 118.214 38.7136 122.685 40.3229C125.814 41.4852 126.977 42.7369 126.977 44.7933C126.977 47.118 125.188 48.5485 122.238 48.5485C120.36 48.5485 118.393 48.0121 116.873 47.0286L116.516 46.8497L115.532 49.979L115.711 50.0685C117.142 50.9625 119.734 51.6778 121.97 51.6778C128.318 51.6778 130.642 47.7438 130.642 44.4357C130.642 41.217 128.854 39.0712 124.384 37.3724Z" fill="white"/>
<path id="Vector_27" d="M137.348 29.5042L133.682 30.6665V33.7958H131V36.7462H133.682V45.8659C133.682 48.1011 134.129 49.6211 134.934 50.6046C135.739 51.4986 137.08 52.0351 138.51 52.0351C139.941 52.0351 140.924 51.7669 141.371 51.5881L141.55 51.4986L141.371 48.5482L141.014 48.6376C140.567 48.8164 140.03 48.8164 139.315 48.8164C137.884 48.8164 137.259 47.9223 137.259 45.7765V36.6568H141.729V33.7064H137.259V29.5042H137.348Z" fill="white"/>
<path id="Vector_28" d="M151.027 33.2598C145.842 33.2598 142.176 37.1043 142.176 42.7371C142.176 48.1016 145.663 51.8567 150.759 51.8567C155.051 51.8567 159.611 48.9063 159.611 42.3794C159.611 39.6972 158.806 37.462 157.286 35.7632C155.677 34.1539 153.531 33.2598 151.027 33.2598ZM150.938 36.2102C154.246 36.2102 155.766 39.429 155.766 42.4688C155.766 46.224 153.71 48.9063 150.849 48.9063C147.988 48.9063 146.021 46.224 146.021 42.5583C146.021 39.429 147.541 36.2102 150.938 36.2102Z" fill="white"/>
<path id="Vector_29" d="M171.055 33.4386L170.876 33.3492C170.519 33.2598 170.25 33.2598 169.982 33.2598C168.015 33.2598 166.316 34.4221 165.333 36.2102L165.243 33.6174H161.935V33.8856C162.025 35.3162 162.114 37.0149 162.114 39.2501V51.4097H165.869V42.0218C165.869 41.4854 165.869 41.0383 165.959 40.5913C166.406 38.3561 167.926 36.8361 169.893 36.8361C170.25 36.8361 170.608 36.8361 170.876 36.9255H171.234V33.4386H171.055Z" fill="white"/>
<path id="Vector_30" d="M179.37 33.2598C174.453 33.2598 170.966 37.1937 170.966 42.9159C170.966 48.3698 174.363 51.8567 179.728 51.8567C182.499 51.8567 184.466 51.2309 185.629 50.6944L185.807 50.605L185.092 47.8334L184.824 47.9228C183.84 48.3698 182.499 48.7274 180.175 48.7274C178.565 48.7274 174.81 48.191 174.631 43.3629H186.612L186.701 43.0947C186.791 42.7371 186.791 42.2006 186.791 41.5748C186.791 37.8196 184.824 33.2598 179.37 33.2598ZM179.102 36.1208C180.264 36.1208 181.158 36.4785 181.873 37.1937C182.946 38.2666 183.125 39.876 183.125 40.6807H174.631C174.989 38.4455 176.33 36.1208 179.102 36.1208Z" fill="white"/>
</g>
</g>
</g>
</svg>
