<svg width="200" height="65" viewBox="0 0 200 65" fill="none" xmlns="http://www.w3.org/2000/svg">
<g id="googleplay">
<g id="Group">
<path id="Vector" d="M199.41 56.238V56.738H199.485C199.224 61.0563 195.602 64.5 191.191 64.5H8.80899C4.22868 64.5 0.5 60.7874 0.5 56.238V8.76204C0.5 4.21263 4.22868 0.5 8.80899 0.5H191.101C195.681 0.5 199.41 4.21263 199.41 8.76204V56.238Z" fill="black" stroke="white" stroke-miterlimit="10"/>
<g id="PLAY 2">
<path id="Vector_2" d="M15.9312 12.3386V34.4225V56.417L38.1045 34.4225L15.9312 12.3386Z" fill="url(#paint0_linear)"/>
<path id="Vector_3" d="M44.0948 28.432L35.154 23.3357L15.9312 12.1597V12.3385L38.1045 34.4224L44.0948 28.432Z" fill="url(#paint1_linear)"/>
<path id="Vector_4" d="M15.9312 56.4169V56.5957L35.154 45.509L44.0948 40.3233L38.1045 34.4224L15.9312 56.4169Z" fill="url(#paint2_linear)"/>
<path id="Vector_5" d="M44.0949 28.4321L38.1045 34.4225L44.0949 40.3235L54.3768 34.4225L44.0949 28.4321Z" fill="url(#paint3_linear)"/>
</g>
<g id="Group_2">
<path id="Vector_6" d="M155.856 43.0054C155.051 43.0054 154.246 42.8266 153.531 42.5584C152.816 42.2901 152.279 41.7537 151.832 41.1278H151.653C151.743 41.8431 151.832 42.5584 151.832 43.2736V48.5487H149.865V29.9518H151.475L151.743 31.7399H151.832C152.369 31.0247 152.905 30.4882 153.531 30.22C154.157 29.9518 154.962 29.7729 155.766 29.7729C157.465 29.7729 158.806 30.3094 159.7 31.4717C160.594 32.634 161.131 34.2434 161.131 36.3892C161.131 38.535 160.684 40.1443 159.7 41.3067C158.806 42.469 157.465 43.0054 155.856 43.0054ZM155.587 31.3823C154.246 31.3823 153.352 31.7399 152.726 32.4552C152.1 33.1705 151.832 34.3328 151.832 35.9421V36.3892C151.832 38.1774 152.1 39.5185 152.726 40.2337C153.352 41.0384 154.246 41.3961 155.587 41.3961C156.66 41.3961 157.554 40.949 158.18 40.0549C158.806 39.1608 159.164 37.9091 159.164 36.3892C159.164 34.7798 158.806 33.5281 158.18 32.7234C157.554 31.8293 156.66 31.3823 155.587 31.3823Z" fill="#F9F9F9"/>
<path id="Vector_7" d="M165.601 42.7373H163.634V24.5874H165.601V42.7373Z" fill="#F9F9F9"/>
<path id="Vector_8" d="M176.777 42.7375L176.42 40.9493H176.33C175.704 41.754 175.078 42.2904 174.453 42.5587C173.827 42.8269 173.022 43.0057 172.039 43.0057C170.787 43.0057 169.803 42.6481 169.088 42.0222C168.373 41.3964 168.015 40.4129 168.015 39.2506C168.015 36.6577 170.072 35.3166 174.184 35.1378L176.33 35.0484V34.2437C176.33 33.2602 176.151 32.4555 175.704 32.0085C175.257 31.5614 174.542 31.2932 173.648 31.2932C172.575 31.2932 171.413 31.6508 169.982 32.2767L169.356 30.7567C169.982 30.3991 170.697 30.1309 171.413 29.9521C172.128 29.7732 172.933 29.6838 173.648 29.6838C175.168 29.6838 176.33 30.0415 177.045 30.6673C177.761 31.3826 178.118 32.4555 178.118 33.886V42.6481H176.777V42.7375ZM172.396 41.3964C173.648 41.3964 174.542 41.0387 175.257 40.4129C175.972 39.787 176.33 38.8035 176.33 37.6412V36.4789L174.363 36.5683C172.843 36.6577 171.681 36.8365 171.055 37.2836C170.34 37.7306 170.072 38.3565 170.072 39.2506C170.072 39.9658 170.25 40.5023 170.697 40.8599C171.055 41.2175 171.681 41.3964 172.396 41.3964Z" fill="#F9F9F9"/>
<path id="Vector_9" d="M179.37 29.9519H181.427L184.198 37.2834C184.824 38.9822 185.182 40.1445 185.36 40.8597H185.45C185.539 40.5021 185.808 39.7868 186.076 38.8034C186.433 37.8199 187.417 34.8694 189.294 29.9519H191.351L185.808 44.5255C185.271 45.956 184.645 47.0289 183.93 47.5654C183.215 48.1912 182.321 48.4595 181.248 48.4595C180.622 48.4595 180.085 48.3701 179.46 48.2807V46.7607C179.907 46.8501 180.354 46.9395 180.89 46.9395C182.231 46.9395 183.215 46.2243 183.751 44.7043L184.466 42.9161L179.37 29.9519Z" fill="#F9F9F9"/>
</g>
<g id="Group_3">
<path id="Vector_10" d="M119.824 31.1141C120.45 31.6505 121.702 32.7234 121.702 34.6904C121.702 36.6574 120.539 37.6409 119.466 38.535C119.109 38.8926 118.751 39.2502 118.751 39.8761C118.751 40.502 119.109 40.7702 119.466 41.0384L120.45 41.7537C121.612 42.7372 122.685 43.6313 122.685 45.5088C122.685 48.0123 120.271 50.6051 115.622 50.6051C111.777 50.6051 109.9 48.7275 109.9 46.7605C109.9 45.7771 110.347 44.4359 111.956 43.4524C113.655 42.4689 115.89 42.2901 117.052 42.2007C116.695 41.7537 116.248 41.2172 116.248 40.4125C116.248 39.9655 116.426 39.6973 116.516 39.3396C116.248 39.3396 115.89 39.429 115.622 39.429C112.761 39.429 111.151 37.2832 111.151 35.2269C111.151 33.9751 111.688 32.634 112.85 31.6505C114.37 30.3988 116.158 30.22 117.678 30.22H123.222L121.523 31.2035H119.824V31.1141ZM117.946 43.0948C117.768 43.0948 117.589 43.0948 117.321 43.0948C117.052 43.0948 115.622 43.1842 114.549 43.5418C113.923 43.7207 112.224 44.4359 112.224 46.3135C112.224 48.1911 114.102 49.6216 116.963 49.6216C119.556 49.6216 120.897 48.3699 120.897 46.7605C120.897 45.2406 120.003 44.5253 117.946 43.0948ZM118.751 37.9985C119.377 37.3727 119.377 36.568 119.377 36.0315C119.377 34.0645 118.215 31.1141 115.979 31.1141C115.264 31.1141 114.549 31.4717 114.102 32.0081C113.655 32.5446 113.476 33.2599 113.476 33.9751C113.476 35.7633 114.549 38.7138 116.784 38.7138C117.589 38.7138 118.304 38.3561 118.751 37.9985Z" fill="#F9F9F9"/>
<path id="Vector_11" d="M103.015 42.6478C98.7235 42.6478 96.4883 39.3397 96.4883 36.2998C96.4883 32.8128 99.3494 29.7729 103.462 29.7729C107.396 29.7729 109.9 32.8128 109.9 36.121C109.81 39.2503 107.396 42.6478 103.015 42.6478ZM106.323 40.4126C106.949 39.5185 107.128 38.4456 107.128 37.4621C107.128 35.1375 105.966 30.5776 102.657 30.5776C101.763 30.5776 100.869 30.9353 100.243 31.4717C99.1705 32.3658 98.9917 33.6175 98.9917 34.7798C98.9917 37.4621 100.333 41.7537 103.552 41.7537C104.624 41.8431 105.697 41.3067 106.323 40.4126Z" fill="#F9F9F9"/>
<path id="Vector_12" d="M88.4416 42.6478C84.15 42.6478 81.9148 39.3397 81.9148 36.2998C81.9148 32.8128 84.7759 29.7729 88.8887 29.7729C92.8226 29.7729 95.3261 32.8128 95.3261 36.121C95.3261 39.2503 92.8226 42.6478 88.4416 42.6478ZM91.8391 40.4126C92.465 39.5185 92.6438 38.4456 92.6438 37.4621C92.6438 35.1375 91.4815 30.5776 88.1734 30.5776C87.2793 30.5776 86.3852 30.9353 85.7594 31.4717C84.6865 32.3658 84.5076 33.6175 84.5076 34.7798C84.5076 37.4621 85.8488 41.7537 89.0675 41.7537C90.1404 41.8431 91.2133 41.3067 91.8391 40.4126Z" fill="#F9F9F9"/>
<path id="Vector_13" d="M79.9478 42.2009L76.1032 43.095C74.5833 43.3632 73.1528 43.5421 71.6328 43.5421C64.2119 43.5421 61.3508 38.0881 61.3508 33.7965C61.3508 28.6108 65.3742 23.6934 72.2587 23.6934C73.6892 23.6934 75.1197 23.8722 76.3715 24.2298C78.4279 24.7663 79.3219 25.4815 79.9478 25.9286L77.7126 28.0744L76.7291 28.2532L77.4444 27.2697C76.5503 26.3756 74.8515 24.7663 71.7222 24.7663C67.4306 24.7663 64.3013 27.985 64.3013 32.7236C64.3013 37.8199 67.9671 42.5586 73.868 42.5586C75.5668 42.5586 76.4609 42.2009 77.2656 41.8433V37.5517L73.2422 37.7305L75.388 36.5682H81.1101L80.3948 37.2835C80.216 37.4623 80.216 37.4623 80.1266 37.7305C80.1266 37.9987 80.0372 38.714 80.0372 38.9822V42.2009H79.9478Z" fill="#F9F9F9"/>
<path id="Vector_14" d="M128.407 41.3961C127.513 41.3067 127.334 41.1279 127.334 40.1444V39.8761V24.9449C127.334 24.8555 127.334 24.8555 127.334 24.7661C127.424 23.7826 127.692 23.6932 128.586 23.1567H124.741L122.685 24.1402H124.741V39.8761V40.7702C124.741 41.3067 124.652 41.3961 124.026 42.2008H128.765L129.748 41.5749C129.301 41.4855 128.854 41.4855 128.407 41.3961Z" fill="#F9F9F9"/>
<path id="Vector_15" d="M139.315 41.6643C139.047 41.8431 138.689 42.0219 138.421 42.1113C137.527 42.469 136.633 42.6478 135.828 42.6478C134.934 42.6478 133.682 42.5584 132.252 41.5749C130.374 40.2337 129.57 37.9091 129.57 35.9421C129.57 31.8293 132.967 29.7729 135.649 29.7729C136.633 29.7729 137.616 30.0412 138.421 30.4882C139.762 31.3823 140.12 32.5446 140.299 33.1705L134.04 35.6739L131.984 35.8527C132.609 39.2503 134.934 41.2172 137.527 41.2172C138.868 41.2172 139.852 40.7702 140.746 40.3232L139.315 41.6643ZM136.812 33.7069C137.348 33.5281 137.616 33.3493 137.616 32.9917C137.616 31.9188 136.454 30.667 134.934 30.667C133.861 30.667 131.894 31.4717 131.894 34.4222C131.894 34.8692 131.984 35.3163 131.984 35.8527L136.812 33.7069Z" fill="#F9F9F9"/>
<g id="Group_4">
<path id="Vector_16" d="M141.908 29.9518V31.7399H141.729V29.9518H141.103V29.7729H142.444V29.9518H141.908Z" fill="#F9F9F9"/>
<path id="Vector_17" d="M144.322 31.7399V29.9518L143.785 31.7399H143.607L143.07 29.9518V31.7399H142.891V29.7729H143.249L143.785 31.3823L144.232 29.7729H144.59V31.7399H144.322Z" fill="#F9F9F9"/>
</g>
</g>
<g id="Group_5">
<path id="Vector_18" d="M66.7153 18.5079H65.3742C65.3742 18.3291 65.2848 17.7926 65.0165 16.9879H63.0495C62.7813 17.7926 62.6919 18.3291 62.6919 18.5079H61.4402C61.4402 18.4185 61.7978 17.5244 62.4237 15.8256C63.0495 14.1269 63.4072 13.2328 63.4072 13.054H64.9271C64.9271 13.2328 65.1953 14.1269 65.8212 15.7362C66.4471 17.435 66.7153 18.3291 66.7153 18.5079ZM64.7483 16.1833C64.3013 14.7527 64.033 13.948 64.033 13.8586C64.033 13.948 63.7648 14.7527 63.3178 16.1833H64.7483Z" fill="#F6F6F6"/>
<path id="Vector_19" d="M72.0798 18.5076H71.0069C71.0069 18.4182 70.6493 17.7923 69.8446 16.7194C69.0399 15.5571 68.5929 14.7524 68.5035 14.3948C68.5929 15.0206 68.5929 15.5571 68.5929 16.0935C68.5929 16.8088 68.5929 17.6135 68.6823 18.597H67.6094C67.6094 17.7029 67.6988 16.8088 67.6988 15.7359C67.6988 14.7524 67.6988 13.8583 67.6094 13.1431H68.8611C68.8611 13.3219 69.2187 13.8583 69.934 14.9312C70.6493 16.0041 71.0963 16.8088 71.1857 17.1665C71.0963 16.5406 71.0963 16.0041 71.0963 15.4677C71.0963 14.7524 71.0963 13.9477 71.0069 13.1431H72.0798C72.0798 13.8583 71.9904 14.663 71.9904 15.7359C72.0798 16.7194 72.0798 17.6135 72.0798 18.5076Z" fill="#F6F6F6"/>
<path id="Vector_20" d="M78.1595 15.5574C78.1595 16.3621 77.8913 17.0774 77.3548 17.6138C76.8184 18.2397 76.1031 18.5079 75.209 18.5079C74.762 18.5079 74.2255 18.5079 73.5103 18.4185C73.5103 17.6138 73.5997 16.6303 73.5997 15.5574C73.5997 14.574 73.5997 13.6799 73.5103 12.9646H74.2255C74.3149 12.9646 74.4937 12.9646 74.762 12.9646C75.0302 12.9646 75.1196 12.9646 75.209 12.9646C76.1925 12.9646 76.9078 13.2328 77.3548 13.6799C77.8913 14.3057 78.1595 14.9316 78.1595 15.5574ZM76.9972 15.7363C76.9972 15.1998 76.8184 14.7528 76.5501 14.3951C76.2819 14.0375 75.7455 13.8587 75.1196 13.8587C75.0302 13.8587 74.8514 13.8587 74.5832 13.8587C74.5832 14.3951 74.5832 15.021 74.5832 15.6469C74.5832 16.2727 74.5832 16.988 74.5832 17.6138C74.762 17.6138 74.9408 17.7033 75.1196 17.7033C75.7455 17.7033 76.1925 17.5244 76.4607 17.1668C76.9078 16.8092 76.9972 16.2727 76.9972 15.7363Z" fill="#F6F6F6"/>
<path id="Vector_21" d="M83.7028 18.5079H82.4511C82.0934 17.5244 81.9146 16.8985 81.7358 16.7197C81.557 16.4515 81.2888 16.3621 80.9311 16.3621C80.7523 16.3621 80.5735 16.3621 80.4841 16.3621C80.4841 17.0773 80.4841 17.7926 80.4841 18.5079H79.3218C79.3218 17.7032 79.4112 16.7197 79.4112 15.6468C79.4112 14.6633 79.4112 13.7692 79.3218 13.054H80.037C80.1265 13.054 80.3053 13.054 80.5735 13.054C80.8417 13.054 81.11 13.054 81.2888 13.054C82.5405 13.054 83.1663 13.501 83.1663 14.3951C83.1663 15.1104 82.8087 15.5574 82.0934 15.8256V15.915C82.3617 16.0044 82.6299 16.1833 82.8087 16.5409C83.0769 16.8985 83.3452 17.5244 83.7028 18.5079ZM82.1829 14.6633C82.1829 14.1269 81.8252 13.8586 81.1099 13.8586C80.8417 13.8586 80.5735 13.8586 80.3947 13.948C80.3947 14.3951 80.4841 14.9315 80.4841 15.6468C80.6629 15.6468 80.7523 15.6468 80.8417 15.6468C81.7358 15.5574 82.1829 15.2892 82.1829 14.6633Z" fill="#F6F6F6"/>
<path id="Vector_22" d="M89.6934 15.6467C89.6934 16.5407 89.4251 17.1666 88.8887 17.7925C88.3522 18.3289 87.7264 18.5971 86.9217 18.5971C86.2064 18.5971 85.5806 18.3289 85.0441 17.7925C84.5077 17.256 84.3289 16.6302 84.3289 15.8255C84.3289 14.9314 84.5971 14.3055 85.1335 13.6797C85.67 13.1432 86.2958 12.875 87.1005 12.875C87.8158 12.875 88.4417 13.1432 88.9781 13.6797C89.5146 14.2161 89.6934 14.842 89.6934 15.6467ZM88.6205 15.8255C88.6205 15.1996 88.4417 14.7526 88.1734 14.3949C87.9052 14.0373 87.5476 13.8585 87.1005 13.8585C86.6535 13.8585 86.3853 14.0373 86.0276 14.3949C85.7594 14.7526 85.5806 15.1996 85.5806 15.7361C85.5806 16.2725 85.7594 16.809 86.0276 17.1666C86.2958 17.5242 86.6535 17.7031 87.1005 17.7031C87.5476 17.7031 87.8158 17.5242 88.1734 17.1666C88.4417 16.809 88.6205 16.3619 88.6205 15.8255Z" fill="#F6F6F6"/>
<path id="Vector_23" d="M92.1074 18.5079H90.9451C90.9451 17.6138 91.0345 16.7197 91.0345 15.6468C91.0345 14.6633 91.0345 13.7692 90.9451 13.054H92.1074C92.1074 13.7692 92.018 14.6633 92.018 15.6468C92.018 16.7197 92.018 17.6138 92.1074 18.5079Z" fill="#F6F6F6"/>
<path id="Vector_24" d="M98.1871 15.5574C98.1871 16.3621 97.9189 17.0774 97.3824 17.6138C96.846 18.2397 96.1307 18.5079 95.2366 18.5079C94.7896 18.5079 94.2531 18.5079 93.5378 18.4185C93.5378 17.6138 93.6272 16.6303 93.6272 15.5574C93.6272 14.574 93.6273 13.6799 93.5378 12.9646H94.2531C94.3425 12.9646 94.5213 12.9646 94.7896 12.9646C95.0578 12.9646 95.1472 12.9646 95.2366 12.9646C96.2201 12.9646 96.9354 13.2328 97.3824 13.6799C97.9189 14.3057 98.1871 14.9316 98.1871 15.5574ZM97.0248 15.7363C97.0248 15.1998 96.846 14.7528 96.5777 14.3951C96.3095 14.0375 95.7731 13.8587 95.1472 13.8587C95.0578 13.8587 94.879 13.8587 94.6107 13.8587C94.6107 14.3951 94.6107 15.021 94.6107 15.6469C94.6107 16.2727 94.6107 16.988 94.6107 17.6138C94.7896 17.6138 94.9684 17.7033 95.1472 17.7033C95.7731 17.7033 96.2201 17.5244 96.4883 17.1668C96.846 16.8092 97.0248 16.2727 97.0248 15.7363Z" fill="#F6F6F6"/>
<path id="Vector_25" d="M106.144 18.5079H104.803C104.803 18.3291 104.714 17.7926 104.446 16.9879H102.479C102.211 17.7926 102.121 18.3291 102.121 18.5079H100.869C100.869 18.4185 101.227 17.5244 101.853 15.8256C102.479 14.1269 102.836 13.2328 102.836 13.054H104.446C104.446 13.2328 104.714 14.1269 105.34 15.7362C105.876 17.435 106.144 18.3291 106.144 18.5079ZM104.267 16.1833C103.82 14.7527 103.552 13.948 103.552 13.8586H103.462C103.462 13.948 103.194 14.7527 102.747 16.1833H104.267Z" fill="#F6F6F6"/>
<path id="Vector_26" d="M111.062 14.4845C111.062 15.1104 110.794 15.6469 110.347 15.9151C109.81 16.2727 109.274 16.3621 108.558 16.3621C108.469 16.3621 108.29 16.3621 108.29 16.3621C108.29 16.8986 108.29 17.6138 108.38 18.4185H107.217C107.217 17.6138 107.307 16.6303 107.307 15.5574C107.307 14.574 107.307 13.6799 107.217 12.9646H107.933C108.022 12.9646 108.201 12.9646 108.558 12.9646C108.827 12.9646 109.095 12.9646 109.363 12.9646C109.9 12.9646 110.347 13.054 110.704 13.3222C110.883 13.6799 111.062 14.0375 111.062 14.4845ZM109.989 14.7528C109.989 14.1269 109.631 13.8587 108.827 13.8587C108.648 13.8587 108.38 13.8587 108.201 13.9481C108.201 14.4845 108.29 15.1104 108.29 15.7363C108.38 15.7363 108.469 15.7363 108.558 15.7363C109.453 15.6469 109.989 15.3786 109.989 14.7528Z" fill="#F6F6F6"/>
<path id="Vector_27" d="M116.069 14.4845C116.069 15.1104 115.8 15.6469 115.353 15.9151C114.817 16.2727 114.281 16.3621 113.565 16.3621C113.476 16.3621 113.297 16.3621 113.297 16.3621C113.297 16.8986 113.297 17.6138 113.386 18.4185H112.224C112.224 17.6138 112.314 16.6303 112.314 15.5574C112.314 14.574 112.314 13.6799 112.224 12.9646H112.939C113.029 12.9646 113.208 12.9646 113.565 12.9646C113.833 12.9646 114.102 12.9646 114.37 12.9646C114.906 12.9646 115.353 13.054 115.711 13.3222C115.89 13.6799 116.069 14.0375 116.069 14.4845ZM114.996 14.7528C114.996 14.1269 114.638 13.8587 113.833 13.8587C113.655 13.8587 113.386 13.8587 113.208 13.9481C113.208 14.4845 113.297 15.1104 113.297 15.7363C113.386 15.7363 113.476 15.7363 113.565 15.7363C114.459 15.6469 114.996 15.3786 114.996 14.7528Z" fill="#F6F6F6"/>
<path id="Vector_28" d="M124.294 15.6467C124.294 16.5407 124.026 17.1666 123.49 17.7925C122.953 18.3289 122.327 18.5971 121.523 18.5971C120.808 18.5971 120.182 18.3289 119.645 17.7925C119.109 17.256 118.93 16.6302 118.93 15.8255C118.93 14.9314 119.198 14.3055 119.735 13.6797C120.271 13.1432 120.897 12.875 121.702 12.875C122.417 12.875 123.043 13.1432 123.579 13.6797C124.026 14.2161 124.294 14.842 124.294 15.6467ZM123.132 15.8255C123.132 15.1996 122.953 14.7526 122.685 14.3949C122.417 14.0373 122.059 13.8585 121.612 13.8585C121.165 13.8585 120.897 14.0373 120.539 14.3949C120.271 14.7526 120.092 15.1996 120.092 15.7361C120.092 16.2725 120.271 16.809 120.539 17.1666C120.808 17.5242 121.165 17.7031 121.612 17.7031C122.059 17.7031 122.327 17.5242 122.685 17.1666C122.953 16.809 123.132 16.3619 123.132 15.8255Z" fill="#F6F6F6"/>
<path id="Vector_29" d="M129.927 18.5076H128.854C128.854 18.4182 128.497 17.7923 127.692 16.7194C126.887 15.5571 126.44 14.7524 126.351 14.3948H126.261C126.351 15.0206 126.351 15.5571 126.351 16.0935C126.351 16.8088 126.351 17.6135 126.44 18.597H125.457C125.457 17.7029 125.546 16.8088 125.546 15.7359C125.546 14.7524 125.546 13.8583 125.457 13.1431H126.709C126.709 13.3219 127.066 13.8583 127.781 14.9312C128.497 16.0041 128.944 16.8088 129.033 17.1665H129.123C129.033 16.5406 129.033 16.0041 129.033 15.4677C129.033 14.7524 129.033 13.9477 128.944 13.1431H130.017C130.017 13.8583 129.927 14.663 129.927 15.7359C129.838 16.7194 129.927 17.6135 129.927 18.5076Z" fill="#F6F6F6"/>
</g>
</g>
</g>
<defs>
<linearGradient id="paint0_linear" x1="27.0333" y1="12.3577" x2="27.0333" y2="56.4277" gradientUnits="userSpaceOnUse">
<stop stop-color="#4979A7"/>
<stop offset="0.1134" stop-color="#5483A9"/>
<stop offset="0.7108" stop-color="#8BB4B3"/>
<stop offset="1" stop-color="#A1C7B7"/>
</linearGradient>
<linearGradient id="paint1_linear" x1="15.922" y1="23.2951" x2="44.1133" y2="23.2951" gradientUnits="userSpaceOnUse">
<stop stop-color="#7EB3A3"/>
<stop offset="1" stop-color="#E0E296"/>
</linearGradient>
<linearGradient id="paint2_linear" x1="30.0175" y1="34.3929" x2="30.0175" y2="56.5874" gradientUnits="userSpaceOnUse">
<stop stop-color="#BE3635"/>
<stop offset="0.0566137" stop-color="#BA373A"/>
<stop offset="0.6924" stop-color="#8F3F71"/>
<stop offset="1" stop-color="#7E4287"/>
</linearGradient>
<linearGradient id="paint3_linear" x1="46.2544" y1="28.4743" x2="46.2544" y2="40.3109" gradientUnits="userSpaceOnUse">
<stop stop-color="#D18079"/>
<stop offset="0.6326" stop-color="#E1AD77"/>
<stop offset="1" stop-color="#E9C376"/>
</linearGradient>
</defs>
</svg>
