<svg width="150" height="50" viewBox="0 0 150 50" fill="none" xmlns="http://www.w3.org/2000/svg">
<path fill-rule="evenodd" clip-rule="evenodd" d="M75.4893 0C87.8883 2.52247 100.288 5.04358 112.62 7.55735C124.954 10.0636 137.22 12.5625 149.419 15.0479C149.422 18.7068 149.425 22.36 149.428 26.0126C149.431 29.6656 149.434 33.3187 149.437 36.9712C124.972 41.2884 100.302 45.6313 75.4954 50C50.4181 45.0687 25.2753 40.1082 0 35.1182C0.00218007 31.3993 0.00408762 27.6741 0.00640394 23.9553C0.0083115 20.2368 0.0104916 16.5241 0.0129441 12.7992C12.6835 10.6542 25.2862 8.50897 37.8882 6.37046C50.4225 4.23822 62.8888 2.11212 75.4891 4.08762e-05L75.4893 0Z" fill="#F8C400"/>
<path fill-rule="evenodd" clip-rule="evenodd" d="M16.4878 21.4029C18.0378 21.425 19.2505 22.7059 19.2497 24.2577C19.2493 25.8094 18.0354 27.0504 16.4854 27.0293C15.0025 27.0094 13.6549 25.7337 13.6558 24.1809C13.6564 22.6282 15.0051 21.3818 16.4878 21.4029ZM133.083 23.0482C134.566 23.0692 135.78 24.3329 135.781 25.8632C135.782 27.3932 134.57 28.6166 133.087 28.5973C131.537 28.5768 130.39 27.3197 130.389 25.7885C130.388 24.2573 131.533 23.0271 133.083 23.0482Z" fill="#131212"/>
<path d="M39.299 23.4702C39.4343 22.5919 39.5692 21.7139 39.7042 20.8356C38.8281 20.8232 38.0192 20.8116 37.2103 20.8003C37.413 19.6104 37.6152 18.4149 37.8178 17.213C36.8745 17.1991 35.9982 17.1863 35.122 17.1733C34.9196 18.3756 34.7173 19.5718 34.5147 20.7616C33.7733 20.7512 33.0318 20.7407 32.2906 20.7308C32.4931 19.5407 32.6957 18.3442 32.9655 17.1416C31.9546 17.1277 31.0786 17.115 30.2024 17.1019C29.9998 18.3051 29.7973 19.5019 29.5947 20.6924C28.7187 20.68 27.8423 20.6672 27.0337 20.6557C26.8986 21.5351 26.7636 22.4146 26.561 23.2941C27.4373 23.3053 28.2461 23.3166 29.122 23.3291C28.987 23.9708 28.9196 24.6136 28.852 25.2501C27.9757 25.2379 27.0998 25.2259 26.2235 25.2146C26.0882 26.0944 25.9532 26.9741 25.8179 27.8539C26.6268 27.8646 27.5032 27.8754 28.3792 27.8873C28.1766 29.0971 27.9744 30.2943 27.7715 31.4919C28.6479 31.5032 29.5241 31.5143 30.4677 31.5269C30.6702 30.3296 30.8728 29.1328 31.0752 27.9235C31.8167 27.9336 32.5582 27.9434 33.367 27.9533C33.1644 29.1623 32.9619 30.3592 32.692 31.5558C33.6356 31.5671 34.5118 31.5785 35.4557 31.5905C35.658 30.3942 35.8603 29.1982 36.0628 27.9896C36.8718 28.0001 37.6806 28.0111 38.5567 28.023C38.6918 27.1444 38.8267 26.2661 38.9618 25.3877C38.0854 25.3758 37.2767 25.3648 36.4682 25.3537C36.5355 24.7178 36.6705 24.0765 36.8055 23.4353C37.6142 23.4466 38.423 23.4579 39.299 23.4702ZM33.7721 25.3168C33.0306 25.3067 32.2218 25.2964 31.5479 25.287C31.6153 24.6508 31.7504 24.0092 31.8854 23.3678C32.5595 23.3772 33.3681 23.3875 34.1095 23.3978C33.9746 24.0393 33.8396 24.6807 33.7721 25.3168ZM40.0386 32.8481C43.139 33.2249 46.5769 32.1212 46.5775 26.1158C46.5781 24.0205 46.5784 21.9251 46.5788 19.8357C47.9267 19.8543 49.2071 19.8728 50.5551 19.892C50.5544 24.249 50.5538 28.6187 50.5536 32.982C51.7668 32.9974 53.0474 33.0137 54.3281 33.0303C54.3284 30.239 54.3285 27.4352 54.3285 24.6441C54.3288 21.853 54.3293 19.0556 54.3293 16.2581C50.488 16.2012 46.579 16.1442 42.8051 16.0882C42.8047 19.4636 42.8038 22.8324 42.8032 26.2078C42.8029 29.0216 41.7916 29.5385 40.0394 29.2533C40.0391 30.4517 40.0388 31.6499 40.0386 32.8481H40.0386ZM67.9435 33.2036C69.2916 33.2208 70.7072 33.2391 72.1226 33.2568C71.1788 30.4591 70.2348 27.6487 69.2912 24.8497C68.3474 22.0504 67.4037 19.2436 66.4601 16.4367C64.8425 16.413 63.2253 16.389 61.6079 16.3652C60.6643 19.1468 59.6529 21.9279 58.7769 24.7052C57.9007 27.4829 56.8895 30.2724 56.0133 33.0516C57.3612 33.0689 58.7095 33.086 60.1249 33.104C60.3944 32.2295 60.664 31.3553 61.0011 30.482C63.023 30.5081 65.0452 30.5345 67.1346 30.5619C67.4041 31.4425 67.6739 32.3233 67.9435 33.2036H67.9435ZM62.0794 26.8979C62.6862 24.8585 63.3601 22.8201 64.0339 20.782C64.6407 22.8378 65.3147 24.8944 65.9887 26.9508C64.6407 26.9325 63.3598 26.9152 62.0794 26.8979ZM84.0511 24.7414C84.9272 23.9651 85.4661 22.8737 85.4658 21.4895C85.4654 18.6032 83.1059 16.6813 80.2082 16.6391C78.0518 16.6073 75.8951 16.5756 73.7384 16.544C73.7388 19.3351 73.7391 22.1259 73.7394 24.9108C73.7397 27.6953 73.7401 30.4927 73.7403 33.2775C76.032 33.3068 78.3911 33.3365 80.7502 33.3663C83.6485 33.4031 86.0747 31.5036 86.0739 28.5428C86.0738 26.8485 85.2644 25.5465 84.0511 24.7415V24.7414ZM80.209 20.223C81.085 20.2352 81.6917 20.8649 81.6919 21.7218C81.6921 22.5852 81.0854 23.1978 80.2094 23.1855C79.2656 23.1725 78.3896 23.1603 77.5134 23.1482C77.5134 22.1605 77.5133 21.1724 77.5131 20.1846C78.3891 20.1971 79.2654 20.2093 80.209 20.223ZM80.7498 29.7891C79.6712 29.7749 78.5926 29.7608 77.5143 29.7466C77.514 28.6781 77.514 27.6093 77.5138 26.5408C78.5922 26.555 79.6705 26.5696 80.7488 26.5843C81.6927 26.597 82.2993 27.2759 82.2995 28.2072C82.2998 29.1386 81.6931 29.8014 80.7498 29.7891ZM98.6796 33.594C100.028 33.6112 101.308 33.6282 102.724 33.6459C101.779 30.8588 100.797 28.0513 99.9571 25.276C99.1098 22.4751 98.0684 19.6846 97.1912 16.889C95.5736 16.8654 93.9564 16.8415 92.3389 16.8178C91.3963 19.5891 90.424 22.3536 89.5104 25.1334C88.6055 27.887 87.6922 30.6743 86.7491 33.4425C88.0973 33.4595 89.4453 33.4774 90.8607 33.4954C91.13 32.624 91.3995 31.7529 91.6689 30.8819C93.6908 30.908 95.7803 30.9353 97.8699 30.9621C98.1396 31.8395 98.4095 32.7169 98.6796 33.594ZM92.8136 27.3184C93.4195 25.2863 94.093 23.2552 94.7663 21.2186C95.3737 23.2732 96.0481 25.3222 96.7229 27.3705C95.3746 27.3528 94.0942 27.3355 92.8136 27.3184ZM119.903 17.2233C119.905 21.5502 119.907 25.8778 119.909 30.2047C118.562 30.1874 117.213 30.1697 115.933 30.1524C115.931 25.823 115.928 21.4938 115.926 17.1645C114.646 17.1457 113.365 17.127 112.152 17.1092C112.155 21.4405 112.156 25.7718 112.158 30.103C110.81 30.0853 109.462 30.0678 108.182 30.0502C108.18 25.7168 108.178 21.3836 108.176 17.0502C106.896 17.0316 105.615 17.0128 104.402 16.9954C104.403 19.7759 104.405 22.5629 104.406 25.3374C104.407 28.1121 104.408 30.8929 104.409 33.6673C110.812 33.7491 117.216 33.8307 123.619 33.9116C123.617 31.1435 123.615 28.369 123.614 25.6012C123.613 22.8328 123.611 20.0523 123.609 17.2778C122.329 17.2593 121.115 17.2408 119.903 17.2233Z" fill="#131212"/>
</svg>
