<svg width="80" height="80" viewBox="0 0 80 80" fill="none" xmlns="http://www.w3.org/2000/svg">
<circle cx="40" cy="40" r="39" stroke="#FFCD28" stroke-width="2"/>
<path d="M47 32C47 33.9806 46.1816 36.5424 44.8218 38.6067C43.4403 40.7039 41.7028 42 40 42C38.2972 42 36.5597 40.7039 35.1782 38.6067C33.8184 36.5424 33 33.9806 33 32C33 30.0491 33.7969 28.0249 35.1041 26.492C36.4097 24.9608 38.1503 24 40 24C41.8497 24 43.5903 24.9608 44.8959 26.492C46.2031 28.0249 47 30.0491 47 32Z" stroke="#FFCD28" stroke-width="2"/>
<path d="M35.1746 39L25.6504 47.9493C24.5973 48.9388 24 50.3196 24 51.7646V51.7646C24 54.656 26.344 57 29.2354 57H50.7646C53.656 57 56 54.656 56 51.7646V51.7646C56 50.3196 55.4027 48.9388 54.3496 47.9493L44.8254 39" stroke="#FFCD28" stroke-width="2"/>
</svg>
