<svg width="80" height="80" viewBox="0 0 80 80" fill="none" xmlns="http://www.w3.org/2000/svg">
<circle cx="40" cy="40" r="39" stroke="#FFCD28" stroke-width="2"/>
<rect x="29" y="18" width="22" height="45" rx="6" stroke="#FFCD28" stroke-width="2"/>
<path d="M29 25.5L37.5238 26.9824C39.455 27.3183 41.2237 28.2754 42.5612 29.7084L44 31.25M47 62L47.4325 38.6435C47.4758 36.3066 46.6083 34.0446 45.0136 32.336L44 31.25M51 26.5L47.8237 27.4529C46.649 27.8053 45.6449 28.5771 45.0021 29.6215L44 31.25" stroke="#FFCD28" stroke-width="2"/>
<path d="M39 27.5L41.102 25.0476C41.672 24.3827 42.504 24 43.3798 24H43.5949C44.4852 24 45.3296 24.3955 45.8995 25.0794L47.5 27M30.5 26L31.593 24.0873C32.1791 23.0615 33.1055 22.2729 34.2118 21.8581L35.1351 21.5118C35.9974 21.1885 36.9602 21.2761 37.75 21.75V21.75C38.5398 22.2239 39.5026 22.3115 40.3649 21.9882L41.5713 21.5358C42.5072 21.1848 43.5191 21.0865 44.5051 21.2508L44.747 21.2912C45.5703 21.4284 46.3485 21.7614 47.0162 22.2622V22.2622C47.6632 22.7474 48.1883 23.3766 48.55 24.0999L50 27M34.5 26.5V26C34.5 24.8954 35.3954 24 36.5 24V24C37.6046 24 38.5 24.8954 38.5 26V27.5" stroke="#FFCD28" stroke-width="2"/>
<path d="M33 34L43 40" stroke="#FFCD28" stroke-width="2" stroke-linecap="round"/>
<path d="M33 41L43 47" stroke="#FFCD28" stroke-width="2" stroke-linecap="round"/>
<path d="M33 48L43 54" stroke="#FFCD28" stroke-width="2" stroke-linecap="round"/>
</svg>
